<svg xmlns="http://www.w3.org/2000/svg" xmlns:xlink="http://www.w3.org/1999/xlink" width="100" height="100" viewBox="0 0 100 100"><g><g transform="translate(50 50) scale(0.69 0.69) rotate(0) translate(-50 -50)" style="fill:#000000"><svg fill="#000000" xmlns="http://www.w3.org/2000/svg" xmlns:xlink="http://www.w3.org/1999/xlink" version="1.1" x="0px" y="0px" viewBox="0 0 100 100" style="enable-background:new 0 0 100 100;" xml:space="preserve"><g><path d="M41.6997,46.45112c-0.53553,0-1.06417-0.25155-1.39729-0.72223c-8.12233-11.46619-8.2206-25.01946-0.2938-40.28348   c0.4353-0.84014,1.46804-1.16539,2.30817-0.73009c0.83818,0.43628,1.16539,1.46902,0.73009,2.30817   c-7.39225,14.23128-7.37555,26.24479,0.04815,36.7264c0.54634,0.77136,0.36455,1.83947-0.4068,2.3858   C42.38753,46.34892,42.04263,46.45112,41.6997,46.45112z"></path><path d="M37.13543,93.79767c-0.00491,0-0.00982,0-0.01474,0c-0.94528-0.00786-1.70485-0.78217-1.69699-1.72744   c0.35276-40.12332,4.65172-51.11392,8.35718-54.83805c-4.23607-8.69226-5.56458-19.1886-3.94915-31.22569   c0.12479-0.93644,0.98164-1.59971,1.92397-1.46803c0.93644,0.12578,1.59381,0.98655,1.46803,1.92397   c-1.59578,11.8897-0.17982,22.11877,4.20856,30.40226c0.40779,0.76939,0.17294,1.72155-0.54634,2.21384   c-3.47552,2.37597-7.69195,13.50414-8.03881,53.02315C38.83831,93.04105,38.07383,93.79767,37.13543,93.79767z"></path><path d="M98.28779,51.87027c-0.17097,0-0.34588-0.02555-0.51882-0.08057c-6.19247-1.97114-15.40551-4.02481-27.38365-6.106   c-0.60922-0.10612-1.11429-0.53258-1.32064-1.11527c-1.13001-3.19057-3.31142-5.27077-6.67199-6.35853   c-0.55616-0.17982-0.98066-0.62986-1.12805-1.19487c-1.69011-6.45188-3.47847-15.15789-5.32383-25.92741   c-1.97507,5.25505-2.69631,13.40195-2.14997,24.32475c0.03734,0.7743-0.44807,1.47786-1.18504,1.71467   c-0.73697,0.23583-1.54369-0.0511-1.96327-0.70257c-4.45029-6.90978-7.97986-16.66818-10.78819-29.83332   c-0.19751-0.92366,0.39207-1.83357,1.31671-2.03009c0.91678-0.19358,1.83357,0.39108,2.03009,1.31671   c1.96426,9.20617,4.27047,16.65836,6.98937,22.55702c0.02752-11.41903,1.77166-19.15912,5.28846-23.55438   c0.42253-0.5257,1.11429-0.75563,1.77068-0.58662c0.65246,0.17196,1.14573,0.71142,1.25382,1.37862   c2.03402,12.42032,3.99926,22.37131,5.84462,29.60142c3.56691,1.3796,6.10797,3.79782,7.57207,7.20359   c11.66959,2.05073,20.71165,4.08574,26.88644,6.04999c0.90008,0.28692,1.39925,1.24989,1.11232,2.14997   C99.68704,51.40549,99.01296,51.87027,98.28779,51.87027z"></path><path d="M52.64903,93.79767c-0.87158,0-1.61641-0.66228-1.7019-1.54664c-0.65443-6.78008-1.3059-24.78364,3.4824-26.63097   l1.84143-0.66032c3.25444-1.15949,6.94319-2.47227,11.11736-4.2292c4.35104-1.84143,10.94442-2.62753,18.56169-2.18338   c6.58355,0.28496,9.66505-2.19321,10.6457-8.64509c0.13953-0.93447,0.99442-1.57514,1.94952-1.43561   c0.93349,0.1415,1.57613,1.01406,1.43463,1.94854c-1.23811,8.16754-5.90752,11.91328-14.20869,11.54971   c-7.12596-0.41073-13.173,0.27514-17.05042,1.92004c-4.26653,1.79427-8.00442,3.12473-11.30013,4.29994L55.76,68.77821   c-1.3344,1.40318-2.56071,11.19007-1.40514,23.14266c0.0904,0.94135-0.5994,1.77854-1.53878,1.86894   C52.75908,93.79571,52.70406,93.79767,52.64903,93.79767z"></path><path d="M67.71259,93.79767c-0.03341,0-0.06682-0.00196-0.10023-0.00393c-0.94331-0.05306-1.66456-0.86274-1.60954-1.80605   c0.55813-9.68274-0.678-18.91936-3.67107-27.45833c-0.31247-0.89222,0.15722-1.86894,1.04944-2.18142   c0.88436-0.31051,1.86698,0.15525,2.18142,1.04943c3.14242,8.96739,4.44144,18.65209,3.8558,28.78683   C69.36732,93.09412,68.61267,93.79767,67.71259,93.79767z"></path><path d="M21.3349,93.79767c-0.01277,0-0.02555,0-0.03832,0c-0.94528-0.02161-1.69404-0.80378-1.6734-1.74906   c0.52275-23.86587,6.83805-41.36436,18.76902-52.00908c0.7065-0.63084,1.78739-0.56501,2.41626,0.13855   c0.62888,0.70454,0.56697,1.7864-0.13855,2.41626c-11.19302,9.98637-17.12313,26.6516-17.62525,49.52896   C23.02402,93.05481,22.26249,93.79767,21.3349,93.79767z"></path><path d="M20.3513,90.04407c-5.83971,0-12.08622-0.84309-19.05202-2.5725c-0.7743-0.19063-1.31278-0.89222-1.29902-1.69011   c0.46773-28.01056,12.76718-45.61714,36.5564-52.32942c0.90598-0.25941,1.85519,0.27219,2.11165,1.18209   c0.25646,0.9099-0.27219,1.85518-1.18209,2.11165C15.71038,42.8901,4.26581,58.94415,3.45515,84.47064   c6.58061,1.54272,12.46159,2.26592,17.96033,2.14015c0.94037,0.02161,1.72646,0.73499,1.74317,1.68027   c0.01769,0.94331-0.73303,1.72548-1.67831,1.74317C21.10595,90.04013,20.72862,90.04407,20.3513,90.04407z"></path><path d="M60.18179,94.82942c-2.68845,0-5.3769-0.36553-7.99067-1.09464c-0.91089-0.25549-1.44249-1.1988-1.18799-2.1087   c0.25254-0.9099,1.19389-1.45035,2.10772-1.18897c4.62617,1.29313,9.51373,1.29313,14.1399,0   c0.91187-0.25745,1.85322,0.28103,2.1087,1.18897c0.25352,0.9099-0.27906,1.85322-1.18896,2.1087   C65.55869,94.46389,62.87024,94.82942,60.18179,94.82942z"></path><path d="M29.23418,95.76095c-2.98815,0-5.97629-0.72124-8.70012-2.16177c-0.83621-0.44218-1.15458-1.47786-0.7124-2.31309   c0.44218-0.83326,1.48277-1.1477,2.31211-0.71338c4.44832,2.35435,9.75545,2.35435,14.20181,0   c0.83621-0.43825,1.87091-0.11988,2.3121,0.71338c0.44218,0.83523,0.12381,1.87091-0.7124,2.31309   C35.21146,95.0397,32.22331,95.76095,29.23418,95.76095z"></path><path d="M44.72224,92.02895c-4.90622,0-8.91531-3.85187-9.12559-8.7689c-0.04029-0.94331,0.69275-1.7412,1.63704-1.78247   c0.93349-0.05896,1.74219,0.69373,1.78247,1.63705c0.13167,3.07953,2.63833,5.49088,5.70607,5.49088   c3.05595,0,5.58816-2.42314,5.76405-5.51643c0.05405-0.94331,0.86864-1.65473,1.80704-1.60953   c0.94332,0.05305,1.66456,0.86077,1.60953,1.80605C53.62379,88.18691,49.59112,92.02895,44.72224,92.02895z"></path><path d="M44.83622,85.29801c-3.70644,0-7.02966-1.89449-8.89173-5.06639c-0.47853-0.81557-0.20537-1.86501,0.61021-2.34257   c0.81165-0.47952,1.86403-0.20438,2.34158,0.60923c1.24105,2.11459,3.46079,3.37628,5.93994,3.37628   c2.44279,0,4.71854-1.29313,5.93994-3.37628c0.47657-0.81165,1.51913-1.08875,2.34256-0.60923   c0.81361,0.47755,1.08678,1.52699,0.60923,2.34257C51.89536,83.35635,48.48862,85.29801,44.83622,85.29801z"></path><path d="M21.84881,84.89906c-0.02456,0-0.04913,0-0.07468-0.00196c-7.98084-0.34195-14.81496-1.32261-20.31174-2.91838   c-0.90794-0.26334-1.43069-1.21255-1.16735-2.1205c0.26432-0.90598,1.21747-1.43069,2.12049-1.16538   c5.23442,1.51717,11.79733,2.45458,19.50599,2.78474c0.94332,0.04127,1.67635,0.83916,1.63606,1.78247   C23.51828,84.17979,22.76068,84.89906,21.84881,84.89906z"></path><path d="M59.55095,45.2533c-0.9158,0-1.67439-0.72517-1.70779-1.64884c-0.03537-0.9443,0.70159-1.73825,1.64687-1.77264   l1.54075-0.05699c0.92366-0.0285,1.73924,0.70159,1.77265,1.64687c0.03537,0.9443-0.70159,1.73825-1.64687,1.77265   l-1.54075,0.05699C59.59418,45.25232,59.57257,45.2533,59.55095,45.2533z"></path></g></svg></g></g></svg>